<?xml version="1.0" encoding="UTF-8"?>
<svg xmlns="http://www.w3.org/2000/svg" viewBox="0 0 24 24">
  <path d="M 12.21,4.83 14.28,5.03 15.36,5.45 16.16,6.01 15.75,6.34 14.14,5.57 12.02,5.41 10.61,5.80 9.30,6.57 8.99,7.13 9.09,7.63 9.53,7.99 11.07,8.61 11.44,9.25 11.44,9.86 11.07,10.50 10.28,10.96 7.47,11.31 6.66,11.79 6.43,12.40 6.43,13.48 6.83,15.45 6.48,15.81 6.11,14.60 5.94,13.21 6.01,12.06 6.24,11.52 6.71,11.04 7.37,10.77 10.15,10.42 10.61,10.19 10.98,9.71 10.71,9.00 9.36,8.53 8.73,8.01 8.53,7.51 8.69,6.51 10.05,5.45 Z M 18.43,4.83 19.02,4.91 19.47,5.59 19.40,6.39 19.04,7.17 15.96,11.44 12.62,15.10 12.65,15.64 10.72,17.76 10.56,18.53 10.07,19.42 9.36,20.05 8.48,20.51 7.47,20.74 6.09,20.63 5.94,20.30 6.24,19.61 6.27,17.30 6.73,16.14 7.60,15.31 8.45,15.04 8.53,14.72 10.18,12.81 10.71,12.85 12.49,10.52 15.26,7.42 17.48,5.34 Z M 12.34,5.87 13.29,5.91 14.03,6.43 14.19,7.40 13.78,8.07 13.13,8.34 12.25,8.34 11.26,8.03 10.72,7.59 10.59,6.93 10.94,6.41 Z M 18.47,8.73 19.30,10.94 19.43,13.83 18.91,16.03 17.73,18.14 15.91,19.82 14.01,20.63 12.18,20.74 10.08,20.13 10.35,19.67 11.26,20.01 12.57,20.21 14.64,19.86 15.88,19.20 17.47,17.64 18.48,15.76 18.94,13.91 18.94,11.63 18.19,9.21 Z M 17.19,11.27 17.98,11.50 18.42,12.29 18.25,13.25 17.52,13.81 16.70,13.58 16.26,12.64 16.49,11.75 Z M 16.14,14.74 16.86,14.93 17.37,15.79 17.21,16.72 16.50,17.28 15.65,17.05 15.21,16.22 15.34,15.37 15.65,14.97 Z M 13.62,16.47 14.34,16.66 14.82,17.37 14.68,18.41 13.98,19.01 13.16,18.82 12.69,17.99 12.88,16.99 Z" fill="none" stroke="#d8e5ff" stroke-width="0.9" stroke-linecap="round" stroke-linejoin="round"/>
</svg>
