<?xml version="1.0" encoding="UTF-8"?>
<svg xmlns="http://www.w3.org/2000/svg" viewBox="0 0 1100 1100">
  <path d="M504,822h329.5c2.02,0,6.24,3.78,7.35,5.65,5.39,9.14-.13,18.35-10.34,19.35l-542.94-.07-9.62-5.4c-43.99-47.26-119.91-94.39-68.36-167.45l409.4-410.6c31.15-28.25,76.14-29.89,108.49-2.46,40.26,34.13,76.14,80.64,116.04,115.96,25.73,31.23,25.98,74.67-.49,105.54l-339.03,339.47ZM751.35,334.35c1.9-2.04,5.38-3.6,6.52-7.03l-.3-1.29c-29.11-24.39-50.98-68.68-95.6-58.56-18.69,4.24-31.92,20.18-45,32.99-51.37,50.3-100.83,102.48-152.5,152.51l-135.22,135.22.25,2.81,83.93,82.06c4.16-3.41,7.33-8.44,11.04-12.09,104.92-103.57,209.38-207.47,312.89-312.61,4.66-4.74,9.5-9.16,14-14ZM442.65,678.65c-2.65,2.7-10.7,8.43-12.21,11.36-.4.77-.67,1.23,0,1.98l84.06,83.99,310.47-310.51c18.13-21.97,17.25-51.46-.94-73-13.63-16.13-32.5-30.44-46.52-46.56l-3.43.65c-110.14,110.97-222.07,220.35-331.43,332.09ZM293.21,821.78l174.27.2,29.5-28.48-186.48-186.48-77.04,76.94c-23.79,28.33-19.35,57.42,5.01,83.08,9.76,10.29,21.28,21.47,31.49,31.52,7.75,7.63,16.53,14.77,23.26,23.22Z" fill="#ffffff"/>
</svg>
