<?xml version="1.0" encoding="UTF-8"?>
<svg xmlns="http://www.w3.org/2000/svg" viewBox="0 0 24 24">
  <path d="M 4.40,24.00 3.98,23.86 3.47,23.35 3.20,22.70 3.20,21.22 3.38,20.48 4.40,18.44 11.35,8.34 10.47,7.64 10.15,7.14 10.05,6.49 10.33,5.84 11.40,5.33 11.86,5.42 13.25,6.25 16.91,0.83 17.42,0.32 17.88,0.05 19.46,0.05 19.83,0.23 20.34,0.65 20.80,1.58 20.71,2.87 16.82,8.62 16.96,8.94 18.21,9.82 18.39,10.19 18.39,10.93 18.21,11.31 17.79,11.72 17.05,11.91 15.57,11.26 8.20,22.05 6.49,23.58 5.65,23.95 Z" fill="none" stroke="#d8e5ff" stroke-width="0.9" stroke-linecap="round" stroke-linejoin="round"/>
</svg>
