<?xml version="1.0" encoding="UTF-8"?>
<svg xmlns="http://www.w3.org/2000/svg" viewBox="0 0 24 24">
  <path d="M 10.23,0.93 10.97,1.04 11.66,1.84 11.80,4.38 15.00,6.22 19.08,9.00 19.97,9.40 20.45,9.78 20.53,10.91 20.19,11.46 20.38,10.73 20.17,9.88 20.09,11.17 19.07,13.59 18.07,15.17 16.12,17.23 15.52,17.63 15.01,17.72 15.55,17.84 16.59,17.28 18.70,14.69 18.83,14.83 18.73,15.09 17.30,16.92 15.68,18.05 14.79,17.97 14.13,17.26 11.93,15.92 11.28,15.73 10.55,15.00 9.84,14.81 9.19,14.00 9.21,14.26 8.53,13.79 8.70,16.96 8.57,18.30 8.39,18.40 8.52,18.56 7.80,19.62 7.69,19.52 7.00,19.82 7.11,20.64 6.90,20.61 6.97,21.11 6.49,21.65 6.12,21.70 5.64,21.29 5.67,20.53 5.54,20.64 5.85,19.37 5.46,19.01 5.95,19.32 5.74,20.82 5.93,21.35 6.26,21.52 6.77,20.79 6.77,19.56 7.77,19.28 8.31,18.45 8.47,17.51 8.21,13.01 8.31,11.72 8.73,9.75 9.62,8.02 7.90,8.71 6.11,10.28 4.91,12.14 4.46,13.25 4.38,13.93 4.48,14.26 4.85,14.22 4.74,14.47 4.42,14.47 4.23,14.25 4.25,13.12 4.80,11.78 6.18,9.84 8.19,8.24 9.00,7.87 9.66,7.82 9.96,7.49 10.77,5.26 10.69,4.57 10.26,4.53 9.07,5.44 8.03,6.85 7.84,6.76 7.86,7.02 7.00,8.04 6.65,8.82 6.66,8.49 7.47,7.07 7.34,7.04 6.63,8.36 6.16,8.86 7.29,6.73 9.29,4.51 10.13,3.85 11.20,3.80 11.53,4.02 11.45,1.97 11.23,1.54 10.65,1.17 10.18,1.25 9.74,1.62 9.57,1.52 9.59,1.73 8.99,2.37 8.55,3.31 9.20,1.71 Z M 4.14,14.60 4.44,15.09 4.57,16.35 4.36,17.01 3.85,17.10 3.60,16.88 3.49,16.14 4.06,15.21 3.73,16.48 3.93,16.89 4.23,16.64 Z M 4.40,18.28 4.67,18.93 4.75,19.43 4.59,19.50 4.75,19.53 4.85,20.71 4.72,20.71 4.36,19.16 3.91,20.82 3.86,22.34 4.07,22.84 4.32,22.94 4.70,22.76 4.95,22.23 5.09,22.48 4.66,23.15 4.27,23.17 3.91,22.97 3.62,22.48 3.55,21.32 Z" fill="none" stroke="#d8e5ff" stroke-width="0.9" stroke-linecap="round" stroke-linejoin="round"/>
</svg>
