<?xml version="1.0" encoding="UTF-8"?>
<svg xmlns="http://www.w3.org/2000/svg" viewBox="0 0 24 24">
  <path d="M 2.31,24.00 4.10,22.50 4.46,21.18 3.29,21.26 2.45,21.03 1.69,20.51 1.02,19.61 0.77,17.99 1.00,17.12 1.47,16.37 0.35,14.42 0.05,12.00 0.26,10.59 0.77,9.09 1.57,7.56 2.69,6.04 4.60,4.12 6.85,2.50 9.43,1.21 12.27,0.32 14.19,0.01 17.76,0.13 20.20,0.90 21.81,1.94 22.87,3.10 23.46,4.16 23.88,5.61 23.95,7.12 23.76,8.43 23.23,10.00 22.39,11.60 21.42,12.94 19.80,14.62 18.22,15.89 14.57,17.88 10.59,18.96 8.48,19.20 6.41,19.17 5.89,20.17 4.97,20.95 4.86,22.05 4.54,22.78 3.21,23.99 Z" fill="none" stroke="#d8e5ff" stroke-width="0.9" stroke-linecap="round" stroke-linejoin="round"/>
</svg>
