<svg xmlns="http://www.w3.org/2000/svg" viewBox="0 0 306 306" fill="none">
  <path d="M184 238c-22.07.85-44.41 3.53-66.1 7.65-30.65 5.83-61.68 14.77-88.38 31.13l-1.38-1.03c27.35-46.07 35.09-101.47 38.59-154.28l.56-.42c23.18 3.63 46.65-4.87 67.2-14.82l-25.49-27.23c.92-.13 1.48 0 2.27.47 2.68 1.56 8.75 10.17 11.21 10.84l1-.04c15.73-15.07 30.42-31.33 46.25-46.29 12.26-11.59 23.3-19.39 41.25-13.22 10.09 3.47 27.78 22.76 35.96 31.04 19.24 19.47 43.1 38.81 20.04 67.44l-52.23 52.24c-.29.77.51 1.92.97 2.54 2.14 2.89 9.2 7.92 10.37 10.64.26.61.45 1.17-.35 1.33l-26.98-25.49c-4.64 8.64-8.57 18.39-11.12 27.88-2 7.42-3.89 16.69-4.16 24.34-.18 5.13.59 10.16.52 15.27ZM194.39 31.14c-5.36.64-11.32 3.67-15.4 7.1l-53.98 54.01 87.74 87.74 54.24-54.26c10.22-12.94 9.4-29.82-1.23-42.24-13.13-15.34-30.71-29.02-44.25-44.25-7.98-6.83-16.57-9.37-27.12-8.1ZM182.5 235.5c-2.33-15.24.96-31.48 5.77-45.98 2.46-7.4 5.95-14.37 8.66-21.67l-59.17-59.39-1.4-.4c-17.12 8.36-35.43 14.68-54.62 15.44-.98.04-1.96.53-3 .53-2.98 0-6.73-.69-9.75-1.03-2.54 38.99-7.82 79.37-20.99 116.26-3.4 9.52-7.69 18.63-12 27.74l65.93-66.16c-5.85-7.32-2.95-18.97 5.93-22.23 12.59-4.62 23.92 8.31 17.73 20.23-3.95 7.6-14.77 9.6-21.43 4.22l-66.16 65.93c8.62-4.11 17.25-8.22 26.24-11.5 37.49-13.68 78.54-19.28 118.26-21.99ZM124.95 191.94c0-6.58-5.33-11.91-11.91-11.91s-11.91 5.33-11.91 11.91 5.33 11.91 11.91 11.91 11.91-5.33 11.91-11.91Z" fill="none" stroke="#ffffff" stroke-width="12" stroke-linecap="round" stroke-linejoin="round"/>
  <path d="M249.82 77.71c5.78 6.85 14.63 12.32 17.44 21.29 2.55 8.16.93 16.79-5.08 22.93-1.13.32-1.91-.48-1.6-1.59.24-.86 3.23-4.52 4.01-6.5 6.21-15.8-7.29-25-16.84-34.84-.86-1.84.89-2.56 2.07-1.29Z" fill="none" stroke="#ffffff" stroke-width="12" stroke-linecap="round" stroke-linejoin="round"/>
  <path d="M238.29 66.23c2.08 1.55 4.89 5.13 6.62 7.12.31.56-.21 1.55-.67 1.65-.57.12-8.1-7.25-8.49-8-1.16-2.19.92-1.98 2.54-.77Z" fill="none" stroke="#ffffff" stroke-width="12" stroke-linecap="round" stroke-linejoin="round"/>
</svg>
